<svg xmlns="http://www.w3.org/2000/svg" viewBox="0 0 24 24" role="img" aria-label="Spotify">
  <circle cx="12" cy="12" r="11" fill="#1ED760"/>
  <path fill="#0D1512" d="M16.97 15.74a.93.93 0 0 1-1.28.3c-2.67-1.63-6.03-2-10-1.1a.93.93 0 1 1-.42-1.81c4.46-1.03 8.27-.6 11.4 1.3.44.26.58.83.3 1.31Zm1.83-4.08a1.16 1.16 0 0 1-1.58.39c-3.05-1.88-7.7-2.42-11.31-1.31a1.15 1.15 0 1 1-.67-2.2c4.12-1.25 9.25-.65 13.2 1.78.55.34.72 1.05.36 1.34Zm.16-4.26C15.3 5.2 9.26 4.98 5.75 6.04a1.38 1.38 0 0 1-.8-2.65c4.03-1.22 10.74-.99 15.45 1.8a1.39 1.39 0 0 1-1.44 2.21Z"/>
</svg>
