<svg xmlns="http://www.w3.org/2000/svg" viewBox="0 0 24 24" role="img" aria-label="GitLab">
  <path fill="#FC6D26" d="M12 22 3.1 15.5 5 8.8 12 22Z"/>
  <path fill="#E24329" d="M12 22 21 15.5 19 8.8 12 22Z"/>
  <path fill="#FCA326" d="M3.1 15.5 1.1 9.3c-.2-.7.5-1.3 1.1-.9L5 8.8l-1.9 6.7Z"/>
  <path fill="#FCA326" d="M21 15.5 22.9 9.3c.2-.7-.5-1.3-1.1-.9L19 8.8l2 6.7Z"/>
  <path fill="#E24329" d="M5 8.8 7.2 2.2c.2-.7 1.2-.7 1.5 0L12 22 5 8.8Z"/>
  <path fill="#FC6D26" d="M19 8.8 16.8 2.2c-.2-.7-1.2-.7-1.5 0L12 22l7-13.2Z"/>
  <path fill="#E24329" d="M5 8.8h14L12 22 5 8.8Z"/>
</svg>
