<svg viewBox="0 0 24 24" xmlns="http://www.w3.org/2000/svg">
  <path d="M4.2 8V5.9C4.2 4.96 4.96 4.2 5.9 4.2H8" fill="none" stroke="#172033" stroke-width="1.75" stroke-linecap="round"/>
  <path d="M16 4.2H18.1C19.04 4.2 19.8 4.96 19.8 5.9V8" fill="none" stroke="#172033" stroke-width="1.75" stroke-linecap="round"/>
  <path d="M19.8 16V18.1C19.8 19.04 19.04 19.8 18.1 19.8H16" fill="none" stroke="#172033" stroke-width="1.75" stroke-linecap="round"/>
  <path d="M8 19.8H5.9C4.96 19.8 4.2 19.04 4.2 18.1V16" fill="none" stroke="#172033" stroke-width="1.75" stroke-linecap="round"/>
  <path d="M7.2 8.4H10.2V11.4H7.2V8.4Z" fill="none" stroke="#172033" stroke-width="1.35"/>
  <path d="M13.8 8.4H16.8V11.4H13.8V8.4Z" fill="none" stroke="#172033" stroke-width="1.35"/>
  <path d="M7.2 14.2H10.2V17.2H7.2V14.2Z" fill="none" stroke="#172033" stroke-width="1.35"/>
  <path d="M12.8 14.1H14.4V15.7H12.8V14.1Z" fill="#172033"/>
  <path d="M15.6 14.1H17.2V15.7H15.6V14.1Z" fill="#172033"/>
  <path d="M12.8 16.7H17.2" fill="none" stroke="#172033" stroke-width="1.35" stroke-linecap="round"/>
  <path d="M6.8 12.6H17.2" fill="none" stroke="#1F6BAE" stroke-width="1.35" stroke-linecap="round"/>
</svg>
