<svg xmlns="http://www.w3.org/2000/svg" viewBox="0 0 59.9 62.6" role="img" aria-label="Notion">
  <path fill="#FFFFFF" d="M3.8 2.7 38.4.1c4.2-.4 5.3-.1 8 1.8l11.1 7.8c1.8 1.3 2.4 1.7 2.4 3.2v42.7c0 2.7-1 4.3-4.4 4.5l-40.2 2.4c-2.6.1-3.8-.2-5.1-1.9L2.1 50.1C.6 48.1 0 46.7 0 45V7c0-2.2 1-4.1 3.8-4.3z"/>
  <path fill="#000000" fill-rule="evenodd" clip-rule="evenodd" d="M38.4.1 3.8 2.7C1 2.9 0 4.8 0 7v38c0 1.7.6 3.2 2.1 5.1l8.1 10.6c1.3 1.7 2.6 2.1 5.1 1.9l40.2-2.4c3.4-.2 4.4-1.8 4.4-4.5V12.9c0-1.4-.5-1.8-2.2-3l-.3-.2L46.4 2C43.8 0 42.7-.2 38.4.1zM16.2 12.2c-3.3.2-4 .3-5.9-1.3L5.6 7.2c-.5-.5-.3-1.1 1-1.2l33.3-2.4c2.8-.2 4.2.7 5.3 1.6l5.7 4.1c.3.1.9.8.1.8l-34.4 2.1h-.4zm-3.8 43.1V19c0-1.6.5-2.3 1.9-2.4l39.5-2.3c1.3-.1 1.9.7 1.9 2.3v36c0 1.6-.3 2.9-2.4 3l-37.8 2.2c-2.1.2-3.1-.6-3.1-2.5zm37.3-34.3c.2 1.1 0 2.2-1.1 2.3l-1.8.4v26.8c-1.6.9-3 1.3-4.2 1.3-1.9 0-2.4-.6-3.9-2.4l-12-18.8v18.1l3.8.9s0 2.2-3 2.2l-8.4.5c-.2-.5 0-1.7.8-1.9l2.2-.6v-24l-3-.3c-.2-1.1.4-2.7 2.1-2.8l9-.6 12.4 19V24.3l-3.2-.4c-.2-1.3.7-2.3 1.9-2.4l8.4-.5z"/>
</svg>
