<svg xmlns="http://www.w3.org/2000/svg" viewBox="0 0 68.7 82.3" role="img" aria-label="Bitwarden"><g><path fill="#175DDC" d="M58.4,44.6l-0.1-34.3l-24,0.1l0.2,60.9c4.2-2.3,8-4.7,11.4-7.4C54.2,57.3,58.4,50.9,58.4,44.6z M68.6,3.4 l0.1,41.1c0,3.1-0.6,6.1-1.8,9.1c-1.2,3-2.7,5.7-4.4,8c-1.8,2.3-3.9,4.6-6.3,6.8c-2.4,2.2-4.7,4.1-6.8,5.5 c-2.1,1.5-4.3,2.9-6.5,4.2c-2.2,1.3-3.8,2.2-4.8,2.7c-0.8,0.4-1.5,0.7-2.3,1.1c-0.4,0.2-0.9,0.3-1.4,0.3c-0.5,0-1-0.1-1.4-0.3 c-0.8-0.3-1.5-0.7-2.3-1.1c-0.9-0.5-2.5-1.3-4.8-2.6c-2.2-1.3-4.4-2.7-6.5-4.1c-2.1-1.5-4.3-3.3-6.8-5.5c-2.5-2.2-4.6-4.5-6.3-6.8 c-1.8-2.3-3.3-5-4.5-8c-1.2-3-1.8-6.1-1.8-9.1L0,3.6c0-0.9,0.3-1.7,1-2.4c0.7-0.7,1.5-1,2.4-1L65.1,0c0.9,0,1.7,0.3,2.4,1 C68.2,1.7,68.6,2.5,68.6,3.4L68.6,3.4z"></path></g></svg>
