<svg xmlns="http://www.w3.org/2000/svg" viewBox="0 0 24 24"><path fill="#5865F2" d="M19.2 5.3a15.5 15.5 0 0 0-3.78-1.18l-.18.36c1.45.34 2.11.83 2.11.83a11.48 11.48 0 0 0-3.36-1.02 11.78 11.78 0 0 0-4 .02c-.99.17-2.3.5-3.33 1 0 0 .63-.46 2-.8l-.12-.39c-1.32.19-2.6.6-3.8 1.18C2.43 8.8 1.75 12.2 2 15.57c1.57 1.17 3.1 1.88 4.6 2.36l1.1-1.8c-.6-.2-1.18-.45-1.72-.75.14.1.29.18.44.26 1.8.88 3.75 1.07 5.58 1 1.39-.05 2.8-.33 4.1-.99.15-.08.3-.16.44-.26-.55.3-1.13.56-1.72.75l1.1 1.8c1.5-.48 3.04-1.2 4.61-2.36.29-3.91-.5-7.28-2.33-10.27ZM9.56 13.5c-.74 0-1.35-.68-1.35-1.52 0-.83.6-1.51 1.35-1.51.76 0 1.36.69 1.35 1.52 0 .84-.6 1.51-1.35 1.51Zm4.88 0c-.74 0-1.35-.68-1.35-1.52 0-.83.6-1.51 1.35-1.51.76 0 1.36.69 1.35 1.52 0 .84-.6 1.51-1.35 1.51Z"/></svg>
