<svg xmlns="http://www.w3.org/2000/svg" viewBox="0 0 24 24"><path fill="#4285F4" d="M23.49 12.27c0-.79-.07-1.55-.2-2.27H12v4.3h6.46a5.52 5.52 0 0 1-2.4 3.62v3h3.88c2.27-2.1 3.55-5.2 3.55-8.65Z"/><path fill="#34A853" d="M12 24c3.24 0 5.95-1.07 7.93-2.9l-3.88-3A7.18 7.18 0 0 1 12 19.3a7.14 7.14 0 0 1-6.7-4.93H1.3v3.08A12 12 0 0 0 12 24Z"/><path fill="#FBBC05" d="M5.3 14.37A7.2 7.2 0 0 1 4.9 12c0-.82.14-1.61.4-2.37V6.55H1.3A12 12 0 0 0 0 12c0 1.93.46 3.76 1.3 5.45l4-3.08Z"/><path fill="#EA4335" d="M12 4.77c1.76 0 3.33.6 4.57 1.77l3.43-3.43C17.94 1.13 15.23 0 12 0A12 12 0 0 0 1.3 6.55l4 3.08A7.14 7.14 0 0 1 12 4.77Z"/></svg>
