<svg xmlns="http://www.w3.org/2000/svg" viewBox="0 0 24 24"><path fill="#181717" d="M12 .5a12 12 0 0 0-3.79 23.39c.6.11.82-.26.82-.58v-2.04c-3.34.73-4.04-1.42-4.04-1.42-.55-1.38-1.33-1.75-1.33-1.75-1.09-.74.08-.73.08-.73 1.2.09 1.84 1.24 1.84 1.24 1.07 1.83 2.8 1.3 3.48.99.11-.78.42-1.3.76-1.6-2.67-.3-5.48-1.34-5.48-5.95 0-1.31.47-2.39 1.24-3.23-.12-.31-.54-1.54.12-3.2 0 0 1.01-.32 3.3 1.23A11.48 11.48 0 0 1 12 6.32c1.02 0 2.05.14 3.01.42 2.29-1.55 3.29-1.23 3.29-1.23.67 1.66.25 2.89.13 3.2.77.84 1.23 1.92 1.23 3.23 0 4.62-2.81 5.64-5.49 5.94.43.37.82 1.1.82 2.22v3.3c0 .32.21.69.83.57A12 12 0 0 0 12 .5Z"/></svg>
