<svg xmlns="http://www.w3.org/2000/svg" viewBox="0 0 24 24"><path fill="#1D1D1F" d="M15.7 12.55c.03 3.02 2.65 4.03 2.68 4.05-.02.07-.41 1.43-1.36 2.84-.82 1.22-1.67 2.43-3.01 2.45-1.32.03-1.75-.79-3.26-.79-1.52 0-1.99.77-3.23.81-1.28.05-2.26-1.29-3.09-2.5-1.69-2.44-2.97-6.88-1.24-9.88.85-1.49 2.38-2.44 4.04-2.47 1.26-.02 2.45.85 3.26.85.81 0 2.33-1.05 3.93-.89.67.03 2.56.27 3.77 2.04-.1.06-2.25 1.31-2.23 3.49Zm-2.85-6.5c.68-.83 1.14-1.98 1.01-3.13-.98.04-2.17.66-2.87 1.49-.63.73-1.18 1.9-1.03 3.02 1.09.08 2.2-.56 2.89-1.38Z"/></svg>
