<svg viewBox="0 0 24 24" xmlns="http://www.w3.org/2000/svg">
  <path fill="#000000" d="M4.2 6.2C4.2 5.54 4.74 5 5.4 5H10.05C10.53 3.72 11.76 2.8 13.2 2.8C14.64 2.8 15.87 3.72 16.35 5H18.6C19.26 5 19.8 5.54 19.8 6.2C19.8 6.86 19.26 7.4 18.6 7.4H16.35C15.87 8.68 14.64 9.6 13.2 9.6C11.76 9.6 10.53 8.68 10.05 7.4H5.4C4.74 7.4 4.2 6.86 4.2 6.2Z"/>
  <path fill="#000000" d="M4.2 17.8C4.2 17.14 4.74 16.6 5.4 16.6H7.65C8.13 15.32 9.36 14.4 10.8 14.4C12.24 14.4 13.47 15.32 13.95 16.6H18.6C19.26 16.6 19.8 17.14 19.8 17.8C19.8 18.46 19.26 19 18.6 19H13.95C13.47 20.28 12.24 21.2 10.8 21.2C9.36 21.2 8.13 20.28 7.65 19H5.4C4.74 19 4.2 18.46 4.2 17.8Z"/>
  <path fill="#000000" d="M4.2 12C4.2 11.34 4.74 10.8 5.4 10.8H18.6C19.26 10.8 19.8 11.34 19.8 12C19.8 12.66 19.26 13.2 18.6 13.2H5.4C4.74 13.2 4.2 12.66 4.2 12Z"/>
</svg>
