<svg viewBox="0 0 24 24" xmlns="http://www.w3.org/2000/svg">
  <path fill="#1F6BAE" d="M18.48 6.2C16.85 4.52 14.56 3.5 12.02 3.5C8.34 3.5 5.18 5.71 3.8 8.88C3.55 9.45 3.81 10.1 4.38 10.35C4.95 10.6 5.6 10.34 5.85 9.77C6.89 7.38 9.27 5.72 12.02 5.72C13.9 5.72 15.6 6.5 16.82 7.76L15.75 8.83C15.25 9.33 15.6 10.18 16.31 10.18H20.02C20.46 10.18 20.82 9.82 20.82 9.38V5.67C20.82 4.96 19.97 4.61 19.47 5.11L18.48 6.2Z"/>
  <path fill="#1F6BAE" d="M5.52 17.8C7.15 19.48 9.44 20.5 11.98 20.5C15.66 20.5 18.82 18.29 20.2 15.12C20.45 14.55 20.19 13.9 19.62 13.65C19.05 13.4 18.4 13.66 18.15 14.23C17.11 16.62 14.73 18.28 11.98 18.28C10.1 18.28 8.4 17.5 7.18 16.24L8.25 15.17C8.75 14.67 8.4 13.82 7.69 13.82H3.98C3.54 13.82 3.18 14.18 3.18 14.62V18.33C3.18 19.04 4.03 19.39 4.53 18.89L5.52 17.8Z"/>
</svg>
