<svg viewBox="0 0 24 24" xmlns="http://www.w3.org/2000/svg">
  <path fill="#000000" fill-rule="evenodd" d="M12 2.4C6.7 2.4 2.4 6.7 2.4 12C2.4 17.3 6.7 21.6 12 21.6C17.3 21.6 21.6 17.3 21.6 12C21.6 6.7 17.3 2.4 12 2.4ZM12 6.7C12.61 6.7 13.1 7.19 13.1 7.8V10.9H16.2C16.81 10.9 17.3 11.39 17.3 12C17.3 12.61 16.81 13.1 16.2 13.1H13.1V16.2C13.1 16.81 12.61 17.3 12 17.3C11.39 17.3 10.9 16.81 10.9 16.2V13.1H7.8C7.19 13.1 6.7 12.61 6.7 12C6.7 11.39 7.19 10.9 7.8 10.9H10.9V7.8C10.9 7.19 11.39 6.7 12 6.7Z"/>
</svg>
