<svg xmlns="http://www.w3.org/2000/svg" viewBox="0 0 24 24" role="img" aria-label="OpenAI">
  <path fill="#101010" d="M12 1.25a4.6 4.6 0 0 1 4 2.32l.13.23a4.61 4.61 0 0 1 4.87 7.46l.23.13A4.61 4.61 0 0 1 18.84 20l-.24.13a4.61 4.61 0 0 1-7.45 1.06l-.15-.17a4.61 4.61 0 0 1-7.42-1.94l-.08-.24A4.61 4.61 0 0 1 2.77 9.5l.17-.15A4.61 4.61 0 0 1 6.39 3.3l.24-.08A4.6 4.6 0 0 1 12 1.25Zm0 2.11a2.5 2.5 0 0 0-2.19 1.29l-.1.19 2.86 1.65a4.63 4.63 0 0 1 3.74-.06l.2.08-.01-1.63A2.5 2.5 0 0 0 12 3.36Zm-5 2.54a2.5 2.5 0 0 0-1.53 3.87l.13.18 2.85-1.64A4.63 4.63 0 0 1 10.36 5l.18-.12L9.1 4.06A2.5 2.5 0 0 0 7 5.9Zm10 0-.19.1v3.29a4.63 4.63 0 0 1 1.9 3.23l.01.22 1.4-.82a2.5 2.5 0 0 0-1.94-4.58Zm-5 2.16a2.52 2.52 0 0 0-2.48 2.09l-.03.22a2.5 2.5 0 0 0 4.96.47l.02-.23a2.5 2.5 0 0 0-2.47-2.55Zm-6.38 3.7a2.5 2.5 0 0 0 1.24 4.02l.22.03 1.44-.82a4.63 4.63 0 0 1-.06-3.74l.08-.2-2.92 1.69Zm12.77 0-2.84 1.65a4.63 4.63 0 0 1-1.92 3.3l-.19.12 1.42.82a2.5 2.5 0 0 0 3.53-3.33Zm-8.12 4.68-2.84 1.64a2.5 2.5 0 0 0 3.63 1.95l.18-.13v-3.29a4.63 4.63 0 0 1-.97-.14Zm3.46.06-.21.06v1.64a2.5 2.5 0 0 0 4.28 1.77l.14-.17-2.85-1.65a4.63 4.63 0 0 1-1.36.35Z"/>
</svg>
